<svg xmlns="http://www.w3.org/2000/svg" width="1042" height="1007" viewBox="0 0 1042 1007">
<g>
<path d="M 943.44 625.53 C939.06,631.38 935.24,634.61 938.40,629.79 C940.56,626.50 939.58,625.86 935.17,627.69 C933.15,628.53 931.79,628.91 932.14,628.55 C933.31,627.34 947.27,618.94 947.59,619.25 C947.76,619.43 945.89,622.25 943.44,625.53 ZM 312.50 658.45 C308.41,659.56 296.58,660.63 298.10,659.75 C298.34,659.61 300.45,657.71 302.78,655.53 L 307.04 651.56 L 306.43 654.62 L 305.81 657.68 L 311.66 657.39 L 317.50 657.09 ZM 260.45 559.00 C260.80,560.38 260.95,565.55 260.78,570.50 C260.47,579.40 260.46,579.43 259.98,573.00 C259.57,567.51 259.23,566.55 257.75,566.79 C257.61,566.82 257.48,566.84 257.36,566.86 C256.80,566.96 256.43,567.03 256.26,566.88 C255.96,566.59 256.36,565.56 257.49,562.59 C257.62,562.25 257.76,561.89 257.91,561.50 C259.65,556.95 259.88,556.72 260.45,559.00 ZM 331.21 296.79 C330.72,304.31 330.60,304.49 328.68,300.45 C327.65,298.29 326.72,293.76 326.56,290.06 C326.40,286.45 326.46,285.68 326.69,288.34 C327.07,292.75 327.31,293.14 329.31,292.64 C331.37,292.12 331.49,292.38 331.21,296.79 ZM 863.61 617.39 C861.94,621.39 861.00,622.00 861.00,619.07 C861.00,618.01 860.21,616.98 859.25,616.77 C857.92,616.49 858.30,615.97 860.84,614.63 C862.68,613.65 864.40,613.06 864.65,613.32 C864.91,613.57 864.44,615.41 863.61,617.39 ZM 577.00 634.59 C577.00,635.06 574.57,634.93 571.14,634.28 C568.55,633.79 561.85,630.01 563.56,630.00 C565.02,630.00 577.00,634.09 577.00,634.59 ZM 785.50 684.95 L 790.50 686.91 L 785.58 686.95 C782.88,686.98 780.96,686.70 781.32,686.34 C781.69,685.98 781.48,685.08 780.87,684.34 C779.44,682.62 779.56,682.63 785.50,684.95 ZM 290.83 703.88 C289.36,703.95 287.45,704.27 286.58,704.61 C283.97,705.61 284.80,703.41 287.50,702.18 C288.88,701.56 290.00,701.45 290.00,701.95 C290.00,702.45 290.79,703.06 291.75,703.31 C292.86,703.60 292.53,703.81 290.83,703.88 ZM 186.57 619.00 C186.57,620.10 186.56,620.99 186.54,620.97 C186.52,620.95 185.66,620.45 184.63,619.85 C183.12,618.98 183.02,618.60 184.13,617.90 C186.16,616.61 186.57,616.79 186.57,619.00 ZM 616.00 665.50 C616.00,666.33 615.89,666.96 615.75,666.92 C612.74,665.97 611.90,664.00 614.50,664.00 C615.33,664.00 616.00,664.67 616.00,665.50 Z" fill="rgb(203,72,111)"/>
<path d="M 544.30 579.90 C545.10,580.70 544.60,580.99 542.45,580.97 C539.86,580.94 539.73,580.81 541.35,579.87 C542.67,579.10 543.51,579.11 544.30,579.90 ZM 343.20 533.80 C344.13,534.73 344.13,535.27 343.20,536.20 C342.27,537.13 342.00,536.87 342.00,535.00 C342.00,533.13 342.27,532.87 343.20,533.80 Z" fill="rgb(219,125,156)"/>
<path d="M 943.44 625.53 C944.66,623.89 945.74,622.37 946.49,621.23 C946.04,621.96 945.47,622.83 944.84,623.75 C939.92,630.92 924.10,646.86 919.00,649.79 C916.53,651.21 912.93,653.72 911.02,655.36 C906.81,658.97 889.42,667.27 882.50,668.98 C879.75,669.66 876.09,670.84 874.38,671.60 C869.49,673.75 857.74,675.95 844.30,677.21 C830.02,678.56 810.01,677.26 793.64,673.93 C785.10,672.19 760.35,664.93 754.53,662.45 C752.71,661.68 752.73,661.85 754.83,664.56 C761.85,673.61 767.58,677.93 780.26,683.12 C779.90,683.15 780.23,683.57 780.87,684.34 C781.48,685.08 781.69,685.98 781.32,686.34 C781.20,686.47 781.35,686.59 781.72,686.68 L 779.95 686.60 C758.23,685.64 728.36,678.04 705.00,667.52 C699.22,664.93 688.32,659.42 680.76,655.29 C647.02,636.84 619.80,627.83 586.00,623.93 C571.40,622.25 538.15,623.82 539.58,626.13 C539.88,626.61 541.84,627.00 543.95,627.00 C547.57,627.00 556.37,628.45 563.33,630.05 C562.71,630.49 568.72,633.82 571.14,634.28 C574.19,634.86 576.45,635.02 576.91,634.73 C583.81,637.92 592.00,642.44 594.60,644.71 C596.19,646.10 600.50,649.68 604.16,652.66 C609.48,656.99 613.91,661.63 615.43,664.33 C615.17,664.12 614.85,664.00 614.50,664.00 C612.84,664.00 612.58,664.81 613.40,665.64 C611.09,665.07 607.46,663.95 603.40,662.52 C596.46,660.08 584.42,656.82 576.65,655.29 C563.66,652.73 560.65,652.51 540.00,652.54 C515.26,652.58 508.79,653.40 485.50,659.48 C469.89,663.55 458.02,667.67 444.54,673.68 C439.02,676.15 432.02,679.08 429.00,680.20 C425.98,681.32 420.80,683.49 417.50,685.03 C402.72,691.91 367.00,700.50 367.00,697.18 C367.00,696.72 370.52,693.83 374.82,690.75 C383.63,684.45 397.08,670.72 403.01,661.99 C410.60,650.81 418.98,630.43 422.43,614.75 C423.19,611.29 421.70,611.16 420.16,614.55 C417.19,621.07 403.62,640.34 396.61,648.00 C386.65,658.88 378.31,666.69 374.50,668.70 C372.85,669.58 368.35,672.63 364.50,675.48 C355.45,682.20 348.92,685.82 336.00,691.29 C320.97,697.65 306.89,701.69 293.50,703.50 C293.13,703.55 292.75,703.60 292.38,703.65 C292.46,703.56 292.26,703.44 291.75,703.31 C290.79,703.06 290.00,702.45 290.00,701.95 C290.00,701.63 289.54,701.56 288.85,701.71 C289.88,701.13 291.08,700.49 292.42,699.82 C306.18,692.98 321.67,681.40 335.59,667.53 C347.17,656.00 355.89,645.56 354.83,644.49 C354.62,644.29 348.39,646.54 340.98,649.49 C325.32,655.73 314.34,658.82 304.76,659.69 C307.66,659.38 310.77,658.92 312.50,658.45 L 317.50 657.09 L 311.66 657.39 L 305.81 657.68 L 306.43 654.62 L 306.94 652.06 C322.40,637.93 328.69,629.67 336.50,614.03 C347.60,591.83 351.24,563.92 345.94,541.75 C345.01,537.89 343.86,535.77 343.12,536.28 C343.14,536.25 343.17,536.23 343.20,536.20 C344.13,535.27 344.13,534.73 343.20,533.80 C342.27,532.87 342.00,533.13 342.00,535.00 C342.00,536.72 342.23,537.08 342.99,536.40 C342.86,536.56 342.74,536.82 342.65,537.19 C342.46,537.91 341.37,542.40 340.22,547.16 C334.57,570.64 323.11,589.52 304.03,606.82 C288.63,620.78 276.46,627.22 256.50,631.98 C233.71,637.41 211.21,634.29 190.15,622.77 C188.68,621.97 187.48,621.28 186.55,620.70 C186.56,620.36 186.57,619.72 186.57,619.00 C186.57,617.95 186.48,617.35 186.16,617.16 C187.11,616.93 188.39,616.72 190.00,616.50 C197.57,615.46 197.94,614.74 193.41,609.82 C188.26,604.22 182.38,594.48 179.78,587.24 C178.29,583.10 177.69,578.85 177.61,572.00 C177.52,563.56 177.82,561.83 180.31,556.50 C185.34,545.71 194.09,539.26 205.00,538.27 C210.60,537.76 216.36,539.55 218.23,542.39 C219.58,544.43 218.98,550.45 216.98,554.86 C213.38,562.78 215.07,572.02 221.15,577.69 C224.64,580.94 236.07,585.98 240.57,586.26 C244.44,586.50 244.57,586.39 249.65,578.71 C251.96,575.22 254.60,570.17 256.19,566.34 C256.14,566.62 256.17,566.79 256.26,566.88 C256.43,567.03 256.80,566.96 257.36,566.86 C257.48,566.84 257.61,566.82 257.75,566.79 C259.23,566.55 259.57,567.51 259.98,573.00 C260.46,579.43 260.47,579.40 260.78,570.50 C260.90,566.94 260.86,563.26 260.70,560.97 C260.89,562.78 260.98,565.53 260.98,569.25 C260.99,574.61 261.40,579.00 261.89,579.00 C264.33,579.00 273.89,566.72 277.05,559.53 L 280.45 551.80 L 285.47 552.46 C290.86,553.17 298.31,556.94 299.89,559.77 C300.77,561.33 300.93,561.34 301.49,559.89 C302.45,557.38 294.38,534.56 288.79,524.00 C280.61,508.55 272.34,497.25 260.54,485.46 C233.25,458.17 204.11,446.87 164.55,448.25 C144.79,448.94 143.90,449.35 136.96,460.80 C133.87,465.91 130.57,470.86 129.63,471.80 C126.89,474.54 126.03,471.77 126.02,460.17 C126.01,454.41 125.60,449.98 125.09,450.17 C124.59,450.35 122.23,453.40 119.84,456.95 C113.62,466.18 113.00,465.98 113.00,454.78 L 113.00 445.40 L 108.54 443.23 C99.52,438.85 92.00,429.49 92.00,422.64 C92.00,420.62 91.19,419.46 88.90,418.20 C74.78,410.43 70.74,401.81 74.86,388.24 C77.18,380.60 82.49,373.61 89.19,369.38 C91.31,368.04 97.84,365.82 103.69,364.43 C116.68,361.36 126.93,357.20 134.67,351.85 C137.88,349.64 146.35,342.09 153.50,335.07 C170.79,318.11 177.97,312.94 193.62,306.14 C222.76,293.47 267.39,292.04 304.00,302.60 C310.26,304.41 330.68,312.27 335.24,314.62 L 338.27 316.19 L 337.56 313.35 C336.18,307.88 335.81,296.41 336.88,292.45 C338.55,286.23 343.31,280.67 353.52,273.04 C362.91,266.01 367.19,260.76 368.43,254.75 C368.74,253.24 369.23,250.88 369.52,249.50 C369.80,248.12 370.71,247.00 371.54,247.00 C372.37,247.00 376.70,248.84 381.17,251.08 C390.32,255.68 401.76,266.28 408.30,276.21 C423.44,299.22 426.07,330.76 415.04,357.24 C407.79,374.68 393.82,390.32 378.44,398.24 C368.73,403.23 356.03,407.35 346.75,408.51 C343.60,408.91 341.23,409.56 341.48,409.97 C341.73,410.37 345.30,411.28 349.42,411.99 C360.42,413.87 375.79,412.89 384.21,409.77 C409.54,400.37 430.81,376.61 437.56,350.17 C438.81,345.26 440.06,342.50 441.36,341.81 C444.30,340.23 482.85,339.56 494.80,340.87 C516.01,343.20 532.12,347.70 550.50,356.44 C560.32,361.10 563.92,363.21 576.65,371.77 C582.01,375.38 598.16,391.84 603.84,399.50 C609.71,407.42 619.83,427.25 622.98,437.00 C624.13,440.58 626.29,449.12 627.78,456.00 C630.29,467.62 630.48,470.12 630.42,491.50 C630.37,513.89 630.28,514.80 627.30,526.07 C623.92,538.81 619.21,549.78 612.54,560.49 C605.34,572.03 606.10,571.67 587.00,572.34 C577.92,572.66 567.35,573.61 563.50,574.46 C552.81,576.80 543.92,579.26 544.39,579.73 C544.62,579.96 553.07,580.26 563.16,580.40 C574.45,580.55 585.92,581.32 593.00,582.41 C609.26,584.91 634.93,591.44 644.97,595.62 C649.66,597.58 659.58,601.57 667.00,604.49 C674.42,607.41 683.96,611.42 688.18,613.40 C692.41,615.38 696.35,617.00 696.94,617.00 C697.53,617.00 704.20,619.29 711.75,622.09 C742.50,633.47 774.07,639.05 796.08,637.00 C819.30,634.84 837.87,628.68 858.53,616.20 C858.40,616.47 858.65,616.65 859.25,616.77 C860.21,616.98 861.00,618.01 861.00,619.07 C861.00,621.04 861.43,621.41 862.21,620.22 C861.91,620.88 861.58,621.56 861.24,622.25 C857.87,629.04 855.76,631.75 849.32,637.58 C845.02,641.47 840.27,645.45 838.76,646.43 C833.72,649.72 836.41,650.32 853.40,649.71 C870.86,649.08 891.86,645.43 905.50,640.66 C913.41,637.89 924.69,632.55 933.63,627.44 C932.87,627.96 932.33,628.35 932.14,628.55 C931.79,628.91 933.15,628.53 935.17,627.69 C939.58,625.86 940.56,626.50 938.40,629.79 C935.24,634.61 939.06,631.38 943.44,625.53 ZM 835.29 604.37 C834.95,604.72 821.97,605.00 806.46,605.00 C785.07,605.00 778.01,604.70 777.27,603.75 C776.73,603.06 770.09,591.47 762.51,578.00 C754.92,564.53 745.90,548.55 742.46,542.50 C739.02,536.45 734.81,528.69 733.09,525.25 L 729.97 519.00 L 703.06 519.00 L 702.78 560.92 C702.63,583.97 702.15,603.19 701.72,603.62 C701.02,604.31 687.81,599.29 661.25,588.23 L 653.00 584.80 L 653.00 480.85 L 655.92 477.92 L 658.85 475.00 L 676.86 475.00 C686.77,475.00 695.13,474.60 695.43,474.12 C695.73,473.64 688.89,463.83 680.23,452.34 C671.58,440.84 661.91,427.92 658.75,423.63 L 653.00 415.83 L 653.00 395.42 C653.00,379.76 653.29,374.99 654.25,374.97 C676.78,374.52 763.27,375.33 768.30,376.04 C783.29,378.17 799.20,385.99 808.76,395.95 C814.93,402.37 822.20,416.28 824.46,426.00 C826.70,435.65 826.48,455.44 824.01,465.74 C820.93,478.60 816.08,487.21 806.85,496.24 C800.71,502.23 796.92,504.96 789.99,508.34 L 781.06 512.71 L 784.34 518.11 C786.15,521.07 791.53,529.86 796.31,537.64 C801.09,545.41 805.00,552.08 805.00,552.45 C805.00,552.83 806.08,554.57 807.39,556.32 C809.84,559.57 822.00,579.69 822.00,580.49 C822.00,580.73 824.41,584.66 827.35,589.22 C833.96,599.47 836.11,603.56 835.29,604.37 ZM 950.00 558.00 L 949.50 604.50 L 900.00 605.03 L 900.00 513.14 L 879.66 475.82 C868.47,455.29 857.76,435.58 855.85,432.00 C853.94,428.42 849.43,420.10 845.83,413.50 C828.25,381.31 826.00,376.98 826.00,375.39 C826.00,373.83 827.37,373.74 842.66,374.34 C851.82,374.70 864.36,375.00 870.51,375.00 L 881.70 375.00 L 886.89 385.75 C889.74,391.66 897.00,405.73 903.03,417.00 C909.05,428.27 916.34,442.12 919.22,447.76 C922.10,453.40 924.84,457.89 925.31,457.73 C925.77,457.58 931.14,447.79 937.24,435.97 C943.34,424.16 952.93,405.73 958.55,395.00 L 968.77 375.50 L 996.39 375.23 C1011.70,375.09 1024.00,375.36 1024.00,375.84 C1024.00,376.32 1012.92,397.14 999.38,422.11 C985.84,447.07 972.97,470.88 970.77,475.00 C964.63,486.53 954.96,504.10 952.61,508.00 C950.57,511.39 950.48,512.94 950.00,558.00 ZM 507.00 558.46 C517.00,560.27 522.31,560.29 531.54,558.52 C549.82,555.03 563.72,544.46 571.97,527.78 C578.15,515.29 580.35,503.23 579.67,485.50 C578.88,465.00 575.28,452.76 566.40,440.30 C560.71,432.33 553.25,426.67 543.29,422.76 C536.38,420.05 534.02,419.65 522.50,419.25 C507.45,418.73 500.07,420.05 488.68,425.33 C467.17,435.30 455.09,464.69 458.10,499.75 C460.09,522.94 469.49,540.21 485.77,550.63 C492.58,554.98 497.14,556.67 507.00,558.46 ZM 740.30 473.84 C741.10,474.82 742.88,475.01 746.95,474.54 C757.68,473.29 762.88,471.22 767.88,466.19 C773.43,460.62 775.00,456.12 774.99,445.88 C774.97,433.44 769.66,425.05 759.50,421.40 C755.33,419.90 750.31,419.54 729.11,419.21 C705.89,418.85 703.77,418.96 704.35,420.46 C704.69,421.36 709.19,428.26 714.35,435.80 C719.50,443.33 727.20,454.67 731.46,461.00 C735.72,467.33 739.69,473.10 740.30,473.84 ZM 331.21 296.79 C331.49,292.38 331.37,292.12 329.31,292.64 C327.31,293.14 327.07,292.75 326.69,288.34 C326.46,285.68 326.40,286.45 326.56,290.06 C326.72,293.76 327.65,298.29 328.68,300.45 C329.86,302.94 330.36,303.82 330.68,302.38 L 330.50 304.30 L 328.70 300.51 C327.71,298.43 326.64,293.95 326.32,290.56 C325.80,284.94 326.08,283.65 329.53,275.95 C335.65,262.26 334.59,251.61 326.23,242.76 C324.81,241.25 323.99,239.68 324.41,239.26 C324.83,238.84 328.40,238.52 332.34,238.54 C341.08,238.59 345.92,240.83 351.88,247.60 C356.00,252.28 356.40,253.30 356.01,258.00 C355.75,261.21 354.89,262.20 346.72,268.72 C339.67,274.35 335.88,279.34 333.33,286.36 C332.51,288.63 331.54,293.56 331.17,297.34 C331.18,297.16 331.19,296.98 331.21,296.79 ZM 544.30 579.90 C543.51,579.11 542.67,579.10 541.35,579.87 C539.73,580.81 539.86,580.94 542.45,580.97 C544.60,580.99 545.10,580.70 544.30,579.90 ZM 290.83 703.88 L 290.85 703.88 C289.02,704.17 287.40,704.47 286.75,704.65 C285.02,705.13 284.52,704.97 285.01,704.38 C284.92,704.86 285.39,705.06 286.58,704.61 C287.45,704.27 289.36,703.95 290.83,703.88 ZM 298.08 659.98 C298.46,660.11 299.74,660.10 301.43,659.99 L 297.70 660.32 ZM 947.60 619.27 C947.59,619.26 947.59,619.26 947.59,619.25 C947.49,619.15 945.94,619.97 943.85,621.17 C945.98,619.86 947.47,619.00 947.63,619.00 C947.68,619.00 947.67,619.10 947.60,619.27 ZM 787.45 686.94 L 790.08 686.91 L 790.50 687.07 ZM 864.67 614.12 C864.73,613.74 864.74,613.46 864.67,613.35 C864.69,613.36 864.70,613.37 864.71,613.38 C864.79,613.45 864.77,613.71 864.67,614.12 ZM 615.99 665.96 C615.99,665.91 615.99,665.86 615.99,665.80 C616.00,665.84 616.00,665.88 616.00,665.92 C616.00,665.93 616.00,665.95 615.99,665.96 Z" fill="rgb(233,40,92)"/>
</g>
</svg>